<svg xmlns="http://www.w3.org/2000/svg" xmlns:xlink="http://www.w3.org/1999/xlink" width="1920" zoomAndPan="magnify" viewBox="0 0 1440 809.999993" height="1080" preserveAspectRatio="xMidYMid meet" version="1.0"><defs><filter x="0%" y="0%" width="100%" height="100%" id="9c048ae430"><feColorMatrix values="0 0 0 0 1 0 0 0 0 1 0 0 0 0 1 0 0 0 1 0" color-interpolation-filters="sRGB"/></filter><mask id="38d454fa90"><g filter="url(#9c048ae430)"><rect x="-144" width="1728" fill="#000000" y="-80.999999" height="971.999992" fill-opacity="0.61"/></g></mask><clipPath id="0cac4cad97"><path d="M 1.25 2 L 225 2 L 225 39 L 1.25 39 Z M 1.25 2 " clip-rule="nonzero"/></clipPath><clipPath id="de04d05ab5"><path d="M 231.019531 25 L 255 25 L 255 40.8125 L 231.019531 40.8125 Z M 231.019531 25 " clip-rule="nonzero"/></clipPath><clipPath id="100d3d4d37"><path d="M 246 0.464844 L 261 0.464844 L 261 25 L 246 25 Z M 246 0.464844 " clip-rule="nonzero"/></clipPath><clipPath id="e3f20d2efd"><path d="M 307 2 L 530.75 2 L 530.75 39 L 307 39 Z M 307 2 " clip-rule="nonzero"/></clipPath><clipPath id="29a780c8c1"><path d="M 277 25 L 300.875 25 L 300.875 40.8125 L 277 40.8125 Z M 277 25 " clip-rule="nonzero"/></clipPath><clipPath id="486b79eab3"><path d="M 271 0.464844 L 286 0.464844 L 286 25 L 271 25 Z M 271 0.464844 " clip-rule="nonzero"/></clipPath><clipPath id="e74871cd09"><rect x="0" width="532" y="0" height="42"/></clipPath></defs><g mask="url(#38d454fa90)"><g transform="matrix(1, 0, 0, 1, 454, 384)"><g clip-path="url(#e74871cd09)"><path fill="#000000" d="M 164.125 15.96875 C 163.832031 16.121094 163.703125 16.542969 163.882812 17.453125 C 164.082031 18.34375 164.578125 19.753906 165.851562 21.625 C 167.128906 23.476562 169.15625 25.871094 172.613281 28.132812 C 174.339844 29.25 176.421875 30.347656 178.929688 31.132812 C 181.433594 31.933594 184.347656 32.429688 187.574219 32.363281 C 190.792969 32.304688 194.058594 31.644531 197.167969 30.433594 C 198.71875 29.8125 200.234375 29.050781 201.675781 28.132812 C 203.128906 27.226562 204.457031 26.171875 205.714844 25.078125 C 208.226562 22.882812 210.445312 20.511719 212.898438 18.503906 C 214.117188 17.488281 215.414062 16.617188 216.804688 15.808594 C 218.203125 15.019531 219.703125 14.359375 221.261719 13.804688 C 224.390625 12.730469 227.808594 12.152344 231.324219 12.257812 C 231.761719 12.285156 232.207031 12.277344 232.644531 12.324219 C 233.089844 12.367188 233.53125 12.410156 233.972656 12.453125 C 234.851562 12.589844 235.746094 12.714844 236.621094 12.929688 C 238.382812 13.339844 240.136719 13.914062 241.832031 14.710938 C 245.203125 16.300781 248.402344 18.601562 251.039062 21.597656 C 253.675781 24.574219 255.8125 28.191406 257.035156 32.261719 C 256.070312 28.316406 254.253906 24.640625 251.863281 21.464844 C 250.648438 19.890625 249.292969 18.433594 247.820312 17.128906 C 246.351562 15.816406 244.757812 14.652344 243.0625 13.679688 C 241.375 12.707031 239.59375 11.902344 237.765625 11.28125 C 235.925781 10.679688 234.039062 10.273438 232.148438 10.03125 C 230.257812 9.777344 228.351562 9.753906 226.472656 9.871094 C 225.53125 9.910156 224.605469 10.042969 223.675781 10.164062 C 222.757812 10.335938 221.835938 10.488281 220.9375 10.726562 C 219.136719 11.183594 217.375 11.777344 215.707031 12.5625 C 214.042969 13.324219 212.433594 14.25 210.964844 15.289062 C 208.035156 17.367188 205.59375 19.710938 203.144531 21.652344 C 200.707031 23.632812 198.257812 25.089844 195.582031 26.074219 C 192.914062 27.027344 190.164062 27.539062 187.476562 27.585938 C 184.785156 27.640625 182.375 27.257812 180.285156 26.652344 C 178.191406 26.058594 176.410156 25.21875 174.890625 24.371094 C 171.851562 22.648438 169.875 20.832031 168.441406 19.464844 C 167.011719 18.082031 166.152344 17.074219 165.484375 16.523438 C 164.847656 15.953125 164.414062 15.816406 164.125 15.96875 " fill-opacity="1" fill-rule="nonzero"/><g clip-path="url(#0cac4cad97)"><path fill="#000000" d="M 1.390625 18.929688 C 1.222656 19.21875 1.644531 19.796875 3.089844 20.902344 C 4.542969 21.972656 7.082031 23.507812 11.351562 25.035156 C 11.886719 25.21875 12.441406 25.441406 13.03125 25.609375 C 13.625 25.773438 14.242188 25.949219 14.882812 26.128906 C 15.210938 26.222656 15.535156 26.3125 15.871094 26.410156 C 16.210938 26.480469 16.558594 26.558594 16.910156 26.632812 C 17.617188 26.78125 18.351562 26.9375 19.113281 27.101562 C 22.175781 27.632812 25.726562 28.039062 29.78125 28.105469 C 33.84375 28.171875 38.40625 27.902344 43.453125 27.160156 C 48.503906 26.421875 54.039062 25.1875 59.996094 23.441406 C 71.949219 20.003906 83.746094 15.183594 96.335938 11.503906 C 97.121094 11.28125 97.910156 11.054688 98.703125 10.828125 C 99.5 10.617188 100.296875 10.40625 101.09375 10.191406 C 102.695312 9.800781 104.304688 9.40625 105.933594 9.042969 C 107.574219 8.722656 109.207031 8.339844 110.875 8.078125 C 111.707031 7.933594 112.542969 7.789062 113.378906 7.640625 C 114.214844 7.523438 115.058594 7.402344 115.902344 7.28125 C 122.664062 6.316406 129.65625 5.910156 136.816406 6 C 151.132812 6.242188 166.15625 8.632812 181.105469 13.871094 C 196.027344 19.089844 210.9375 27.113281 224.3125 38.539062 C 211.816406 27.285156 197.558594 18.765625 182.835938 12.925781 C 168.097656 7.078125 152.882812 3.847656 138.078125 2.988281 C 134.378906 2.816406 130.703125 2.695312 127.0625 2.8125 C 125.242188 2.820312 123.429688 2.949219 121.628906 3.03125 C 120.726562 3.078125 119.835938 3.167969 118.9375 3.234375 C 118.042969 3.3125 117.152344 3.363281 116.261719 3.476562 C 109.164062 4.226562 102.222656 5.484375 95.621094 7.265625 C 89 9 82.683594 11.09375 76.558594 13.125 C 70.433594 15.164062 64.503906 17.171875 58.671875 18.851562 C 52.847656 20.558594 47.558594 21.761719 42.746094 22.53125 C 37.941406 23.300781 33.621094 23.652344 29.785156 23.699219 C 25.953125 23.753906 22.613281 23.519531 19.710938 23.1875 C 18.992188 23.078125 18.296875 22.972656 17.632812 22.871094 C 17.292969 22.820312 16.964844 22.777344 16.644531 22.730469 C 16.324219 22.664062 16.011719 22.601562 15.707031 22.539062 C 15.089844 22.414062 14.5 22.296875 13.933594 22.1875 C 13.363281 22.082031 12.835938 21.917969 12.320312 21.796875 C 8.199219 20.773438 5.589844 19.777344 3.9375 19.246094 C 2.289062 18.6875 1.554688 18.644531 1.390625 18.929688 " fill-opacity="1" fill-rule="nonzero"/></g><g clip-path="url(#de04d05ab5)"><path fill="#000000" d="M 231.273438 28.804688 C 231.410156 29.109375 231.617188 29.359375 231.917969 29.546875 C 232.226562 29.738281 232.621094 29.839844 233.164062 29.898438 C 234.242188 30.019531 235.835938 29.789062 238.519531 29.953125 C 239.859375 30.0625 241.265625 30.222656 242.734375 30.582031 C 244.199219 30.925781 245.730469 31.445312 247.269531 32.214844 C 248.027344 32.613281 248.789062 33.066406 249.539062 33.59375 C 250.277344 34.132812 251 34.75 251.679688 35.453125 C 253.035156 36.863281 254.203125 38.664062 254.882812 40.8125 C 254.648438 38.671875 254 36.578125 252.976562 34.714844 C 251.972656 32.84375 250.644531 31.195312 249.144531 29.816406 C 246.140625 27.066406 242.410156 25.441406 238.855469 25.1875 C 237.082031 25.0625 235.628906 25.269531 234.519531 25.566406 C 233.40625 25.894531 232.621094 26.28125 232.105469 26.691406 C 231.574219 27.082031 231.308594 27.488281 231.199219 27.835938 C 231.089844 28.1875 231.140625 28.503906 231.273438 28.804688 " fill-opacity="1" fill-rule="nonzero"/></g><g clip-path="url(#100d3d4d37)"><path fill="#000000" d="M 246.183594 1.828125 C 246.128906 2.152344 246.148438 2.480469 246.285156 2.804688 C 246.421875 3.132812 246.675781 3.4375 247.066406 3.789062 C 247.84375 4.496094 249.21875 5.191406 251.25 6.777344 C 252.246094 7.589844 253.277344 8.46875 254.25 9.542969 C 255.234375 10.597656 256.179688 11.832031 256.992188 13.265625 C 257.394531 13.988281 257.761719 14.757812 258.078125 15.582031 C 258.382812 16.40625 258.632812 17.285156 258.808594 18.210938 C 259.144531 20.058594 259.132812 22.121094 258.546875 24.207031 C 259.5 22.375 260.105469 20.347656 260.296875 18.3125 C 260.503906 16.277344 260.335938 14.246094 259.886719 12.328125 C 258.984375 8.503906 256.902344 5.171875 254.207031 3.03125 C 252.863281 1.960938 251.59375 1.335938 250.546875 0.964844 C 249.484375 0.621094 248.648438 0.5 248.011719 0.546875 C 247.378906 0.574219 246.945312 0.757812 246.664062 0.988281 C 246.382812 1.214844 246.246094 1.503906 246.183594 1.828125 " fill-opacity="1" fill-rule="nonzero"/></g><path fill="#000000" d="M 367.769531 15.96875 C 368.0625 16.121094 368.191406 16.542969 368.011719 17.453125 C 367.808594 18.34375 367.3125 19.753906 366.042969 21.625 C 364.761719 23.476562 362.738281 25.871094 359.28125 28.132812 C 357.554688 29.25 355.472656 30.347656 352.964844 31.132812 C 350.460938 31.933594 347.542969 32.429688 344.320312 32.363281 C 341.097656 32.304688 337.835938 31.644531 334.722656 30.433594 C 333.175781 29.8125 331.660156 29.050781 330.21875 28.132812 C 328.765625 27.226562 327.4375 26.171875 326.179688 25.078125 C 323.667969 22.882812 321.449219 20.511719 318.996094 18.503906 C 317.777344 17.488281 316.480469 16.617188 315.089844 15.808594 C 313.6875 15.019531 312.191406 14.359375 310.632812 13.804688 C 307.503906 12.730469 304.085938 12.152344 300.570312 12.257812 C 300.132812 12.285156 299.6875 12.277344 299.25 12.324219 C 298.804688 12.367188 298.363281 12.410156 297.921875 12.453125 C 297.039062 12.589844 296.148438 12.714844 295.269531 12.929688 C 293.511719 13.339844 291.757812 13.914062 290.0625 14.710938 C 286.691406 16.300781 283.492188 18.601562 280.855469 21.597656 C 278.21875 24.574219 276.078125 28.191406 274.859375 32.261719 C 275.824219 28.316406 277.640625 24.640625 280.03125 21.464844 C 281.242188 19.890625 282.601562 18.433594 284.074219 17.128906 C 285.542969 15.816406 287.136719 14.652344 288.828125 13.679688 C 290.519531 12.707031 292.296875 11.902344 294.128906 11.28125 C 295.96875 10.679688 297.855469 10.273438 299.746094 10.03125 C 301.636719 9.777344 303.542969 9.753906 305.421875 9.871094 C 306.363281 9.910156 307.289062 10.042969 308.21875 10.164062 C 309.136719 10.335938 310.058594 10.488281 310.957031 10.726562 C 312.757812 11.183594 314.519531 11.777344 316.1875 12.5625 C 317.851562 13.324219 319.460938 14.25 320.929688 15.289062 C 323.859375 17.367188 326.296875 19.710938 328.75 21.652344 C 331.183594 23.632812 333.636719 25.089844 336.3125 26.074219 C 338.976562 27.027344 341.730469 27.539062 344.417969 27.585938 C 347.109375 27.640625 349.519531 27.257812 351.609375 26.652344 C 353.703125 26.058594 355.480469 25.21875 357.003906 24.371094 C 360.042969 22.648438 362.019531 20.832031 363.453125 19.464844 C 364.882812 18.082031 365.742188 17.074219 366.410156 16.523438 C 367.046875 15.953125 367.480469 15.816406 367.769531 15.96875 " fill-opacity="1" fill-rule="nonzero"/><g clip-path="url(#e3f20d2efd)"><path fill="#000000" d="M 530.503906 18.929688 C 530.671875 19.21875 530.25 19.796875 528.804688 20.902344 C 527.351562 21.972656 524.8125 23.507812 520.542969 25.035156 C 520.007812 25.21875 519.453125 25.441406 518.863281 25.609375 C 518.269531 25.773438 517.652344 25.949219 517.011719 26.128906 C 516.683594 26.222656 516.359375 26.3125 516.023438 26.410156 C 515.683594 26.480469 515.335938 26.558594 514.984375 26.632812 C 514.277344 26.78125 513.542969 26.9375 512.78125 27.101562 C 509.71875 27.632812 506.171875 28.039062 502.109375 28.105469 C 498.050781 28.171875 493.488281 27.902344 488.445312 27.160156 C 483.390625 26.421875 477.855469 25.1875 471.898438 23.441406 C 459.949219 20.003906 448.148438 15.183594 435.558594 11.503906 C 434.773438 11.28125 433.984375 11.054688 433.1875 10.828125 C 432.394531 10.617188 431.597656 10.40625 430.800781 10.191406 C 429.199219 9.800781 427.585938 9.40625 425.957031 9.042969 C 424.320312 8.722656 422.6875 8.339844 421.019531 8.078125 C 420.1875 7.933594 419.351562 7.789062 418.515625 7.640625 C 417.675781 7.523438 416.835938 7.402344 415.992188 7.28125 C 409.230469 6.316406 402.238281 5.910156 395.074219 6 C 380.761719 6.242188 365.738281 8.632812 350.789062 13.871094 C 335.867188 19.089844 320.957031 27.113281 307.582031 38.539062 C 320.078125 27.285156 334.335938 18.765625 349.058594 12.925781 C 363.796875 7.078125 379.011719 3.847656 393.816406 2.988281 C 397.515625 2.816406 401.191406 2.695312 404.832031 2.8125 C 406.652344 2.820312 408.460938 2.949219 410.265625 3.03125 C 411.167969 3.078125 412.058594 3.167969 412.957031 3.234375 C 413.847656 3.3125 414.742188 3.363281 415.632812 3.476562 C 422.730469 4.226562 429.671875 5.484375 436.273438 7.265625 C 442.890625 9 449.210938 11.09375 455.335938 13.125 C 461.460938 15.164062 467.390625 17.171875 473.222656 18.851562 C 479.046875 20.558594 484.335938 21.761719 489.144531 22.53125 C 493.953125 23.300781 498.273438 23.652344 502.105469 23.699219 C 505.941406 23.753906 509.28125 23.519531 512.179688 23.1875 C 512.902344 23.078125 513.597656 22.972656 514.261719 22.871094 C 514.601562 22.820312 514.925781 22.777344 515.25 22.730469 C 515.566406 22.664062 515.882812 22.601562 516.1875 22.539062 C 516.804688 22.414062 517.394531 22.296875 517.960938 22.1875 C 518.53125 22.082031 519.058594 21.917969 519.574219 21.796875 C 523.695312 20.773438 526.304688 19.777344 527.957031 19.246094 C 529.605469 18.6875 530.339844 18.644531 530.503906 18.929688 " fill-opacity="1" fill-rule="nonzero"/></g><g clip-path="url(#29a780c8c1)"><path fill="#000000" d="M 300.621094 28.804688 C 300.484375 29.109375 300.277344 29.359375 299.976562 29.546875 C 299.664062 29.738281 299.273438 29.839844 298.730469 29.898438 C 297.652344 30.019531 296.058594 29.789062 293.375 29.953125 C 292.035156 30.0625 290.628906 30.222656 289.160156 30.582031 C 287.691406 30.925781 286.164062 31.445312 284.625 32.214844 C 283.863281 32.613281 283.105469 33.066406 282.355469 33.59375 C 281.617188 34.132812 280.890625 34.75 280.214844 35.453125 C 278.859375 36.863281 277.691406 38.664062 277.011719 40.8125 C 277.246094 38.671875 277.894531 36.578125 278.917969 34.714844 C 279.921875 32.84375 281.246094 31.195312 282.75 29.816406 C 285.753906 27.066406 289.484375 25.441406 293.039062 25.1875 C 294.8125 25.0625 296.261719 25.269531 297.375 25.566406 C 298.488281 25.894531 299.273438 26.28125 299.789062 26.691406 C 300.320312 27.082031 300.582031 27.488281 300.695312 27.835938 C 300.804688 28.1875 300.753906 28.503906 300.621094 28.804688 " fill-opacity="1" fill-rule="nonzero"/></g><g clip-path="url(#486b79eab3)"><path fill="#000000" d="M 285.707031 1.828125 C 285.765625 2.152344 285.746094 2.480469 285.609375 2.804688 C 285.472656 3.132812 285.214844 3.4375 284.828125 3.789062 C 284.050781 4.496094 282.675781 5.191406 280.644531 6.777344 C 279.648438 7.589844 278.617188 8.46875 277.644531 9.542969 C 276.660156 10.597656 275.714844 11.832031 274.902344 13.265625 C 274.5 13.988281 274.132812 14.757812 273.816406 15.582031 C 273.511719 16.40625 273.261719 17.285156 273.085938 18.210938 C 272.746094 20.058594 272.761719 22.121094 273.347656 24.207031 C 272.390625 22.375 271.789062 20.347656 271.597656 18.3125 C 271.390625 16.277344 271.558594 14.246094 272.007812 12.328125 C 272.910156 8.503906 274.992188 5.171875 277.6875 3.03125 C 279.03125 1.960938 280.300781 1.335938 281.347656 0.964844 C 282.410156 0.621094 283.246094 0.5 283.882812 0.546875 C 284.515625 0.574219 284.949219 0.757812 285.230469 0.988281 C 285.511719 1.214844 285.648438 1.503906 285.707031 1.828125 " fill-opacity="1" fill-rule="nonzero"/></g></g></g></g></svg>