<svg xmlns="http://www.w3.org/2000/svg" xmlns:xlink="http://www.w3.org/1999/xlink" width="1640" zoomAndPan="magnify" viewBox="0 0 1230 693.000001" height="924" preserveAspectRatio="xMidYMid meet" version="1.0"><defs><g/><clipPath id="54ea134896"><path d="M 0.886719 0 L 1229.113281 0 L 1229.113281 692 L 0.886719 692 Z M 0.886719 0 " clip-rule="nonzero"/></clipPath><linearGradient x1="0" gradientTransform="matrix(0.748919, 0, 0, 0.748919, 0.886166, 0.0000199712)" y1="0" x2="1639.999932" gradientUnits="userSpaceOnUse" y2="0" id="bf70c9658d"><stop stop-opacity="1" stop-color="rgb(80.39856%, 100%, 84.698486%)" offset="0"/><stop stop-opacity="1" stop-color="rgb(80.311584%, 99.891663%, 84.757996%)" offset="0.0078125"/><stop stop-opacity="1" stop-color="rgb(80.136108%, 99.676514%, 84.87854%)" offset="0.015625"/><stop stop-opacity="1" stop-color="rgb(79.960632%, 99.461365%, 84.997559%)" offset="0.0234375"/><stop stop-opacity="1" stop-color="rgb(79.786682%, 99.246216%, 85.116577%)" offset="0.03125"/><stop stop-opacity="1" stop-color="rgb(79.611206%, 99.032593%, 85.237122%)" offset="0.0390625"/><stop stop-opacity="1" stop-color="rgb(79.43573%, 98.817444%, 85.35614%)" offset="0.046875"/><stop stop-opacity="1" stop-color="rgb(79.26178%, 98.602295%, 85.476685%)" offset="0.0546875"/><stop stop-opacity="1" stop-color="rgb(79.086304%, 98.387146%, 85.595703%)" offset="0.0625"/><stop stop-opacity="1" stop-color="rgb(78.910828%, 98.171997%, 85.714722%)" offset="0.0703125"/><stop stop-opacity="1" stop-color="rgb(78.736877%, 97.958374%, 85.835266%)" offset="0.078125"/><stop stop-opacity="1" stop-color="rgb(78.561401%, 97.743225%, 85.954285%)" offset="0.0859375"/><stop stop-opacity="1" stop-color="rgb(78.385925%, 97.528076%, 86.073303%)" offset="0.09375"/><stop stop-opacity="1" stop-color="rgb(78.211975%, 97.312927%, 86.193848%)" offset="0.101562"/><stop stop-opacity="1" stop-color="rgb(78.036499%, 97.097778%, 86.312866%)" offset="0.109375"/><stop stop-opacity="1" stop-color="rgb(77.861023%, 96.884155%, 86.431885%)" offset="0.117188"/><stop stop-opacity="1" stop-color="rgb(77.685547%, 96.669006%, 86.552429%)" offset="0.125"/><stop stop-opacity="1" stop-color="rgb(77.511597%, 96.453857%, 86.671448%)" offset="0.132812"/><stop stop-opacity="1" stop-color="rgb(77.336121%, 96.238708%, 86.790466%)" offset="0.140625"/><stop stop-opacity="1" stop-color="rgb(77.160645%, 96.02356%, 86.911011%)" offset="0.148437"/><stop stop-opacity="1" stop-color="rgb(76.986694%, 95.809937%, 87.030029%)" offset="0.15625"/><stop stop-opacity="1" stop-color="rgb(76.811218%, 95.594788%, 87.149048%)" offset="0.164062"/><stop stop-opacity="1" stop-color="rgb(76.635742%, 95.379639%, 87.269592%)" offset="0.171875"/><stop stop-opacity="1" stop-color="rgb(76.461792%, 95.16449%, 87.388611%)" offset="0.179687"/><stop stop-opacity="1" stop-color="rgb(76.286316%, 94.949341%, 87.507629%)" offset="0.1875"/><stop stop-opacity="1" stop-color="rgb(76.11084%, 94.735718%, 87.628174%)" offset="0.195312"/><stop stop-opacity="1" stop-color="rgb(75.93689%, 94.520569%, 87.747192%)" offset="0.203125"/><stop stop-opacity="1" stop-color="rgb(75.761414%, 94.30542%, 87.866211%)" offset="0.210938"/><stop stop-opacity="1" stop-color="rgb(75.585938%, 94.090271%, 87.986755%)" offset="0.21875"/><stop stop-opacity="1" stop-color="rgb(75.410461%, 93.875122%, 88.105774%)" offset="0.226562"/><stop stop-opacity="1" stop-color="rgb(75.236511%, 93.661499%, 88.224792%)" offset="0.234375"/><stop stop-opacity="1" stop-color="rgb(75.061035%, 93.44635%, 88.345337%)" offset="0.242188"/><stop stop-opacity="1" stop-color="rgb(74.885559%, 93.231201%, 88.464355%)" offset="0.25"/><stop stop-opacity="1" stop-color="rgb(74.711609%, 93.016052%, 88.583374%)" offset="0.257812"/><stop stop-opacity="1" stop-color="rgb(74.536133%, 92.800903%, 88.703918%)" offset="0.265625"/><stop stop-opacity="1" stop-color="rgb(74.360657%, 92.58728%, 88.822937%)" offset="0.273437"/><stop stop-opacity="1" stop-color="rgb(74.186707%, 92.372131%, 88.941956%)" offset="0.28125"/><stop stop-opacity="1" stop-color="rgb(74.01123%, 92.156982%, 89.0625%)" offset="0.289062"/><stop stop-opacity="1" stop-color="rgb(73.835754%, 91.941833%, 89.181519%)" offset="0.296875"/><stop stop-opacity="1" stop-color="rgb(73.661804%, 91.726685%, 89.300537%)" offset="0.304687"/><stop stop-opacity="1" stop-color="rgb(73.486328%, 91.513062%, 89.421082%)" offset="0.3125"/><stop stop-opacity="1" stop-color="rgb(73.310852%, 91.297913%, 89.5401%)" offset="0.320312"/><stop stop-opacity="1" stop-color="rgb(73.136902%, 91.082764%, 89.659119%)" offset="0.328125"/><stop stop-opacity="1" stop-color="rgb(72.961426%, 90.867615%, 89.779663%)" offset="0.335937"/><stop stop-opacity="1" stop-color="rgb(72.78595%, 90.652466%, 89.898682%)" offset="0.34375"/><stop stop-opacity="1" stop-color="rgb(72.610474%, 90.438843%, 90.0177%)" offset="0.351562"/><stop stop-opacity="1" stop-color="rgb(72.436523%, 90.223694%, 90.138245%)" offset="0.359375"/><stop stop-opacity="1" stop-color="rgb(72.261047%, 90.008545%, 90.257263%)" offset="0.367187"/><stop stop-opacity="1" stop-color="rgb(72.085571%, 89.793396%, 90.376282%)" offset="0.375"/><stop stop-opacity="1" stop-color="rgb(71.911621%, 89.578247%, 90.496826%)" offset="0.382812"/><stop stop-opacity="1" stop-color="rgb(71.736145%, 89.364624%, 90.615845%)" offset="0.390625"/><stop stop-opacity="1" stop-color="rgb(71.560669%, 89.149475%, 90.734863%)" offset="0.398438"/><stop stop-opacity="1" stop-color="rgb(71.386719%, 88.934326%, 90.855408%)" offset="0.40625"/><stop stop-opacity="1" stop-color="rgb(71.211243%, 88.719177%, 90.974426%)" offset="0.414062"/><stop stop-opacity="1" stop-color="rgb(71.035767%, 88.504028%, 91.093445%)" offset="0.421875"/><stop stop-opacity="1" stop-color="rgb(70.861816%, 88.290405%, 91.213989%)" offset="0.429688"/><stop stop-opacity="1" stop-color="rgb(70.68634%, 88.075256%, 91.333008%)" offset="0.4375"/><stop stop-opacity="1" stop-color="rgb(70.510864%, 87.860107%, 91.452026%)" offset="0.445312"/><stop stop-opacity="1" stop-color="rgb(70.336914%, 87.644958%, 91.572571%)" offset="0.453125"/><stop stop-opacity="1" stop-color="rgb(70.161438%, 87.42981%, 91.691589%)" offset="0.460938"/><stop stop-opacity="1" stop-color="rgb(69.985962%, 87.216187%, 91.810608%)" offset="0.46875"/><stop stop-opacity="1" stop-color="rgb(69.810486%, 87.001038%, 91.931152%)" offset="0.476562"/><stop stop-opacity="1" stop-color="rgb(69.636536%, 86.785889%, 92.050171%)" offset="0.484375"/><stop stop-opacity="1" stop-color="rgb(69.46106%, 86.57074%, 92.169189%)" offset="0.492188"/><stop stop-opacity="1" stop-color="rgb(69.285583%, 86.355591%, 92.289734%)" offset="0.5"/><stop stop-opacity="1" stop-color="rgb(69.111633%, 86.141968%, 92.408752%)" offset="0.507812"/><stop stop-opacity="1" stop-color="rgb(68.936157%, 85.926819%, 92.527771%)" offset="0.515625"/><stop stop-opacity="1" stop-color="rgb(68.760681%, 85.71167%, 92.648315%)" offset="0.523437"/><stop stop-opacity="1" stop-color="rgb(68.586731%, 85.496521%, 92.767334%)" offset="0.53125"/><stop stop-opacity="1" stop-color="rgb(68.411255%, 85.281372%, 92.886353%)" offset="0.539062"/><stop stop-opacity="1" stop-color="rgb(68.235779%, 85.067749%, 93.006897%)" offset="0.546875"/><stop stop-opacity="1" stop-color="rgb(68.061829%, 84.8526%, 93.125916%)" offset="0.554687"/><stop stop-opacity="1" stop-color="rgb(67.886353%, 84.637451%, 93.244934%)" offset="0.5625"/><stop stop-opacity="1" stop-color="rgb(67.710876%, 84.422302%, 93.365479%)" offset="0.570312"/><stop stop-opacity="1" stop-color="rgb(67.536926%, 84.207153%, 93.484497%)" offset="0.578125"/><stop stop-opacity="1" stop-color="rgb(67.36145%, 83.99353%, 93.603516%)" offset="0.585937"/><stop stop-opacity="1" stop-color="rgb(67.185974%, 83.778381%, 93.72406%)" offset="0.59375"/><stop stop-opacity="1" stop-color="rgb(67.010498%, 83.563232%, 93.843079%)" offset="0.601562"/><stop stop-opacity="1" stop-color="rgb(66.836548%, 83.348083%, 93.962097%)" offset="0.609375"/><stop stop-opacity="1" stop-color="rgb(66.661072%, 83.132935%, 94.082642%)" offset="0.617187"/><stop stop-opacity="1" stop-color="rgb(66.485596%, 82.919312%, 94.20166%)" offset="0.625"/><stop stop-opacity="1" stop-color="rgb(66.311646%, 82.704163%, 94.320679%)" offset="0.632812"/><stop stop-opacity="1" stop-color="rgb(66.136169%, 82.489014%, 94.441223%)" offset="0.640625"/><stop stop-opacity="1" stop-color="rgb(65.960693%, 82.273865%, 94.560242%)" offset="0.648437"/><stop stop-opacity="1" stop-color="rgb(65.786743%, 82.058716%, 94.67926%)" offset="0.65625"/><stop stop-opacity="1" stop-color="rgb(65.611267%, 81.845093%, 94.799805%)" offset="0.664062"/><stop stop-opacity="1" stop-color="rgb(65.435791%, 81.629944%, 94.918823%)" offset="0.671875"/><stop stop-opacity="1" stop-color="rgb(65.261841%, 81.414795%, 95.037842%)" offset="0.679687"/><stop stop-opacity="1" stop-color="rgb(65.086365%, 81.199646%, 95.158386%)" offset="0.6875"/><stop stop-opacity="1" stop-color="rgb(64.910889%, 80.984497%, 95.277405%)" offset="0.695312"/><stop stop-opacity="1" stop-color="rgb(64.736938%, 80.770874%, 95.396423%)" offset="0.703125"/><stop stop-opacity="1" stop-color="rgb(64.561462%, 80.555725%, 95.516968%)" offset="0.710937"/><stop stop-opacity="1" stop-color="rgb(64.385986%, 80.340576%, 95.635986%)" offset="0.71875"/><stop stop-opacity="1" stop-color="rgb(64.21051%, 80.125427%, 95.755005%)" offset="0.726562"/><stop stop-opacity="1" stop-color="rgb(64.03656%, 79.910278%, 95.875549%)" offset="0.734375"/><stop stop-opacity="1" stop-color="rgb(63.861084%, 79.696655%, 95.994568%)" offset="0.742187"/><stop stop-opacity="1" stop-color="rgb(63.685608%, 79.481506%, 96.113586%)" offset="0.75"/><stop stop-opacity="1" stop-color="rgb(63.511658%, 79.266357%, 96.234131%)" offset="0.757812"/><stop stop-opacity="1" stop-color="rgb(63.336182%, 79.051208%, 96.353149%)" offset="0.765625"/><stop stop-opacity="1" stop-color="rgb(63.160706%, 78.83606%, 96.472168%)" offset="0.773438"/><stop stop-opacity="1" stop-color="rgb(62.986755%, 78.622437%, 96.592712%)" offset="0.78125"/><stop stop-opacity="1" stop-color="rgb(62.811279%, 78.407288%, 96.711731%)" offset="0.789062"/><stop stop-opacity="1" stop-color="rgb(62.635803%, 78.192139%, 96.83075%)" offset="0.796875"/><stop stop-opacity="1" stop-color="rgb(62.461853%, 77.97699%, 96.951294%)" offset="0.804688"/><stop stop-opacity="1" stop-color="rgb(62.286377%, 77.761841%, 97.070312%)" offset="0.8125"/><stop stop-opacity="1" stop-color="rgb(62.110901%, 77.548218%, 97.189331%)" offset="0.820312"/><stop stop-opacity="1" stop-color="rgb(61.936951%, 77.333069%, 97.309875%)" offset="0.828125"/><stop stop-opacity="1" stop-color="rgb(61.761475%, 77.11792%, 97.428894%)" offset="0.835938"/><stop stop-opacity="1" stop-color="rgb(61.585999%, 76.902771%, 97.547913%)" offset="0.84375"/><stop stop-opacity="1" stop-color="rgb(61.410522%, 76.687622%, 97.668457%)" offset="0.851562"/><stop stop-opacity="1" stop-color="rgb(61.236572%, 76.473999%, 97.787476%)" offset="0.859375"/><stop stop-opacity="1" stop-color="rgb(61.061096%, 76.25885%, 97.906494%)" offset="0.867188"/><stop stop-opacity="1" stop-color="rgb(60.88562%, 76.043701%, 98.027039%)" offset="0.875"/><stop stop-opacity="1" stop-color="rgb(60.71167%, 75.828552%, 98.146057%)" offset="0.882812"/><stop stop-opacity="1" stop-color="rgb(60.536194%, 75.613403%, 98.265076%)" offset="0.890625"/><stop stop-opacity="1" stop-color="rgb(60.360718%, 75.39978%, 98.38562%)" offset="0.898438"/><stop stop-opacity="1" stop-color="rgb(60.186768%, 75.184631%, 98.504639%)" offset="0.90625"/><stop stop-opacity="1" stop-color="rgb(60.011292%, 74.969482%, 98.623657%)" offset="0.914062"/><stop stop-opacity="1" stop-color="rgb(59.835815%, 74.754333%, 98.744202%)" offset="0.921875"/><stop stop-opacity="1" stop-color="rgb(59.661865%, 74.539185%, 98.86322%)" offset="0.929688"/><stop stop-opacity="1" stop-color="rgb(59.486389%, 74.325562%, 98.982239%)" offset="0.9375"/><stop stop-opacity="1" stop-color="rgb(59.310913%, 74.110413%, 99.102783%)" offset="0.945312"/><stop stop-opacity="1" stop-color="rgb(59.136963%, 73.895264%, 99.221802%)" offset="0.953125"/><stop stop-opacity="1" stop-color="rgb(58.961487%, 73.680115%, 99.34082%)" offset="0.960938"/><stop stop-opacity="1" stop-color="rgb(58.786011%, 73.464966%, 99.461365%)" offset="0.96875"/><stop stop-opacity="1" stop-color="rgb(58.610535%, 73.251343%, 99.580383%)" offset="0.976562"/><stop stop-opacity="1" stop-color="rgb(58.436584%, 73.036194%, 99.699402%)" offset="0.984375"/><stop stop-opacity="1" stop-color="rgb(58.261108%, 72.821045%, 99.819946%)" offset="0.992188"/><stop stop-opacity="1" stop-color="rgb(58.085632%, 72.605896%, 99.938965%)" offset="1"/></linearGradient></defs><g clip-path="url(#54ea134896)"><path fill="#ffffff" d="M 0.886719 0 L 1229.113281 0 L 1229.113281 692 L 0.886719 692 Z M 0.886719 0 " fill-opacity="1" fill-rule="nonzero"/><path fill="url(#bf70c9658d)" d="M 0.886719 0 L 0.886719 692 L 1229.113281 692 L 1229.113281 0 Z M 0.886719 0 " fill-rule="nonzero"/></g><g fill="#ffffff" fill-opacity="1"><g transform="translate(354.065454, 373.826318)"><g><path d="M 12.515625 0 L 9.59375 0 C 8.914062 0 8.578125 -0.398438 8.578125 -1.203125 L 8.578125 -63.671875 C 8.578125 -64.472656 8.914062 -64.875 9.59375 -64.875 L 12.515625 -64.875 C 13.253906 -64.875 13.625 -64.472656 13.625 -63.671875 L 13.625 -36.125 C 13.625 -35.519531 13.957031 -35.21875 14.625 -35.21875 L 42.890625 -35.21875 C 43.554688 -35.21875 43.890625 -35.519531 43.890625 -36.125 L 43.890625 -63.671875 C 43.890625 -64.472656 44.226562 -64.875 44.90625 -64.875 L 47.828125 -64.875 C 48.566406 -64.875 48.9375 -64.472656 48.9375 -63.671875 L 48.9375 -1.203125 C 48.9375 -0.398438 48.566406 0 47.828125 0 L 44.90625 0 C 44.226562 0 43.890625 -0.398438 43.890625 -1.203125 L 43.890625 -29.765625 C 43.890625 -30.367188 43.554688 -30.671875 42.890625 -30.671875 L 14.625 -30.671875 C 13.957031 -30.671875 13.625 -30.367188 13.625 -29.765625 L 13.625 -1.203125 C 13.625 -0.398438 13.253906 0 12.515625 0 Z M 12.515625 0 "/></g></g></g><g fill="#ffffff" fill-opacity="1"><g transform="translate(411.579937, 373.826318)"><g><path d="M 8.078125 -59.9375 L 8.078125 -69.625 C 8.078125 -70.363281 8.410156 -70.734375 9.078125 -70.734375 L 12.109375 -70.734375 C 12.785156 -70.734375 13.125 -70.363281 13.125 -69.625 L 13.125 -59.9375 C 13.125 -59.132812 12.785156 -58.734375 12.109375 -58.734375 L 9.078125 -58.734375 C 8.410156 -58.734375 8.078125 -59.132812 8.078125 -59.9375 Z M 8.078125 -1.203125 L 8.078125 -50.25 C 8.078125 -51.0625 8.410156 -51.46875 9.078125 -51.46875 L 12.015625 -51.46875 C 12.753906 -51.46875 13.125 -51.0625 13.125 -50.25 L 13.125 -1.203125 C 13.125 -0.398438 12.785156 0 12.109375 0 L 9.078125 0 C 8.410156 0 8.078125 -0.398438 8.078125 -1.203125 Z M 8.078125 -1.203125 "/></g></g></g><g fill="#ffffff" fill-opacity="1"><g transform="translate(432.76949, 373.826318)"><g><path d="M 27.546875 -2.921875 L 20.984375 -2.921875 C 16.679688 -2.921875 13.269531 -4.195312 10.75 -6.75 C 8.226562 -9.3125 6.96875 -12.78125 6.96875 -17.15625 L 6.96875 -37.140625 C 6.96875 -41.578125 8.226562 -45.070312 10.75 -47.625 C 13.269531 -50.1875 16.71875 -51.46875 21.09375 -51.46875 L 42.484375 -51.46875 C 43.222656 -51.46875 43.59375 -51.0625 43.59375 -50.25 L 43.59375 -0.203125 C 43.59375 4.234375 42.3125 7.726562 39.75 10.28125 C 37.195312 12.84375 33.734375 14.125 29.359375 14.125 L 11 14.125 C 10.257812 14.125 9.890625 13.753906 9.890625 13.015625 L 9.890625 10.59375 C 9.890625 9.925781 10.257812 9.59375 11 9.59375 L 28.953125 9.59375 C 32.054688 9.59375 34.410156 8.734375 36.015625 7.015625 C 37.628906 5.296875 38.4375 2.820312 38.4375 -0.40625 L 38.4375 -8.171875 L 38.046875 -8.171875 C 36.359375 -4.671875 32.859375 -2.921875 27.546875 -2.921875 Z M 38.4375 -17.359375 L 38.4375 -46.015625 C 38.4375 -46.617188 38.132812 -46.921875 37.53125 -46.921875 L 21.59375 -46.921875 C 18.5 -46.921875 16.128906 -46.0625 14.484375 -44.34375 C 12.835938 -42.632812 12.015625 -40.164062 12.015625 -36.9375 L 12.015625 -17.359375 C 12.015625 -14.191406 12.835938 -11.75 14.484375 -10.03125 C 16.128906 -8.320312 18.5 -7.46875 21.59375 -7.46875 L 28.046875 -7.46875 C 31.273438 -7.46875 33.8125 -8.320312 35.65625 -10.03125 C 37.507812 -11.75 38.4375 -14.191406 38.4375 -17.359375 Z M 38.4375 -17.359375 "/></g></g></g><g fill="#ffffff" fill-opacity="1"><g transform="translate(483.826207, 373.826318)"><g><path d="M 11.5 0 L 8.578125 0 C 7.898438 0 7.5625 -0.398438 7.5625 -1.203125 L 7.5625 -69.71875 C 7.5625 -70.53125 7.898438 -70.9375 8.578125 -70.9375 L 11.5 -70.9375 C 12.238281 -70.9375 12.609375 -70.53125 12.609375 -69.71875 L 12.609375 -46.21875 L 13.015625 -46.21875 C 14.898438 -49.71875 18.398438 -51.46875 23.515625 -51.46875 L 30.171875 -51.46875 C 34.472656 -51.46875 37.867188 -50.1875 40.359375 -47.625 C 42.847656 -45.070312 44.09375 -41.578125 44.09375 -37.140625 L 44.09375 -1.203125 C 44.09375 -0.398438 43.757812 0 43.09375 0 L 40.15625 0 C 39.414062 0 39.046875 -0.398438 39.046875 -1.203125 L 39.046875 -36.9375 C 39.046875 -40.09375 38.238281 -42.546875 36.625 -44.296875 C 35.007812 -46.046875 32.65625 -46.921875 29.5625 -46.921875 L 23 -46.921875 C 19.769531 -46.921875 17.226562 -46.0625 15.375 -44.34375 C 13.53125 -42.632812 12.609375 -40.195312 12.609375 -37.03125 L 12.609375 -1.203125 C 12.609375 -0.398438 12.238281 0 11.5 0 Z M 11.5 0 "/></g></g></g><g fill="#ffffff" fill-opacity="1"><g transform="translate(534.983823, 373.826318)"><g/></g></g><g fill="#ffffff" fill-opacity="1"><g transform="translate(561.924818, 373.826318)"><g><path d="M 12.515625 0 L 9.59375 0 C 8.914062 0 8.578125 -0.398438 8.578125 -1.203125 L 8.578125 -63.671875 C 8.578125 -64.472656 8.914062 -64.875 9.59375 -64.875 L 40.671875 -64.875 C 41.472656 -64.875 41.875 -64.503906 41.875 -63.765625 L 41.875 -61.453125 C 41.875 -60.710938 41.472656 -60.34375 40.671875 -60.34375 L 14.625 -60.34375 C 13.957031 -60.34375 13.625 -60.039062 13.625 -59.4375 L 13.625 -34.90625 C 13.625 -34.375 13.957031 -34.109375 14.625 -34.109375 L 37.9375 -34.109375 C 38.675781 -34.109375 39.046875 -33.738281 39.046875 -33 L 39.046875 -30.578125 C 39.046875 -29.835938 38.675781 -29.46875 37.9375 -29.46875 L 14.625 -29.46875 C 13.957031 -29.46875 13.625 -29.195312 13.625 -28.65625 L 13.625 -1.203125 C 13.625 -0.398438 13.253906 0 12.515625 0 Z M 12.515625 0 "/></g></g></g><g fill="#ffffff" fill-opacity="1"><g transform="translate(608.23911, 373.826318)"><g><path d="M 27.140625 0 L 20.6875 0 C 16.3125 0 12.863281 -1.273438 10.34375 -3.828125 C 7.820312 -6.390625 6.5625 -9.890625 6.5625 -14.328125 L 6.5625 -37.140625 C 6.5625 -41.578125 7.820312 -45.070312 10.34375 -47.625 C 12.863281 -50.1875 16.3125 -51.46875 20.6875 -51.46875 L 42.078125 -51.46875 C 42.753906 -51.46875 43.09375 -51.0625 43.09375 -50.25 L 43.09375 -1.203125 C 43.09375 -0.398438 42.753906 0 42.078125 0 L 39.15625 0 C 38.414062 0 38.046875 -0.398438 38.046875 -1.203125 L 38.046875 -5.25 L 37.640625 -5.25 C 35.890625 -1.75 32.390625 0 27.140625 0 Z M 38.046875 -14.421875 L 38.046875 -46.015625 C 38.046875 -46.617188 37.707031 -46.921875 37.03125 -46.921875 L 21.09375 -46.921875 C 18 -46.921875 15.644531 -46.046875 14.03125 -44.296875 C 12.414062 -42.546875 11.609375 -40.09375 11.609375 -36.9375 L 11.609375 -14.53125 C 11.609375 -11.363281 12.414062 -8.90625 14.03125 -7.15625 C 15.644531 -5.414062 18 -4.546875 21.09375 -4.546875 L 27.640625 -4.546875 C 30.867188 -4.546875 33.410156 -5.398438 35.265625 -7.109375 C 37.117188 -8.828125 38.046875 -11.265625 38.046875 -14.421875 Z M 38.046875 -14.421875 "/></g></g></g><g fill="#ffffff" fill-opacity="1"><g transform="translate(658.892234, 373.826318)"><g><path d="M 24.21875 0 L 6.65625 0 C 5.914062 0 5.546875 -0.367188 5.546875 -1.109375 L 5.546875 -3.4375 C 5.546875 -4.101562 5.914062 -4.4375 6.65625 -4.4375 L 23.71875 -4.4375 C 29.769531 -4.4375 32.796875 -6.789062 32.796875 -11.5 L 32.796875 -13.921875 C 32.796875 -18.296875 30.910156 -21.15625 27.140625 -22.5 L 14.53125 -27.34375 C 11.101562 -28.6875 8.664062 -30.265625 7.21875 -32.078125 C 5.769531 -33.898438 5.046875 -36.425781 5.046875 -39.65625 C 5.046875 -47.53125 9.382812 -51.46875 18.0625 -51.46875 L 34.40625 -51.46875 C 35.144531 -51.46875 35.515625 -51.097656 35.515625 -50.359375 L 35.515625 -48.03125 C 35.515625 -47.351562 35.144531 -47.015625 34.40625 -47.015625 L 18.5625 -47.015625 C 15.800781 -47.015625 13.734375 -46.410156 12.359375 -45.203125 C 10.984375 -43.992188 10.296875 -42.582031 10.296875 -40.96875 L 10.296875 -38.640625 C 10.296875 -36.765625 10.816406 -35.285156 11.859375 -34.203125 C 12.898438 -33.128906 14.5 -32.222656 16.65625 -31.484375 L 29.265625 -26.4375 C 32.765625 -25.289062 35.101562 -23.59375 36.28125 -21.34375 C 37.457031 -19.09375 38.046875 -15.945312 38.046875 -11.90625 C 38.046875 -7.875 36.914062 -4.878906 34.65625 -2.921875 C 32.40625 -0.972656 28.925781 0 24.21875 0 Z M 24.21875 0 "/></g></g></g><g fill="#ffffff" fill-opacity="1"><g transform="translate(702.38127, 373.826318)"><g><path d="M 11.5 0 L 8.578125 0 C 7.898438 0 7.5625 -0.398438 7.5625 -1.203125 L 7.5625 -69.71875 C 7.5625 -70.53125 7.898438 -70.9375 8.578125 -70.9375 L 11.5 -70.9375 C 12.238281 -70.9375 12.609375 -70.53125 12.609375 -69.71875 L 12.609375 -46.21875 L 13.015625 -46.21875 C 14.898438 -49.71875 18.398438 -51.46875 23.515625 -51.46875 L 30.171875 -51.46875 C 34.472656 -51.46875 37.867188 -50.1875 40.359375 -47.625 C 42.847656 -45.070312 44.09375 -41.578125 44.09375 -37.140625 L 44.09375 -1.203125 C 44.09375 -0.398438 43.757812 0 43.09375 0 L 40.15625 0 C 39.414062 0 39.046875 -0.398438 39.046875 -1.203125 L 39.046875 -36.9375 C 39.046875 -40.09375 38.238281 -42.546875 36.625 -44.296875 C 35.007812 -46.046875 32.65625 -46.921875 29.5625 -46.921875 L 23 -46.921875 C 19.769531 -46.921875 17.226562 -46.0625 15.375 -44.34375 C 13.53125 -42.632812 12.609375 -40.195312 12.609375 -37.03125 L 12.609375 -1.203125 C 12.609375 -0.398438 12.238281 0 11.5 0 Z M 11.5 0 "/></g></g></g><g fill="#ffffff" fill-opacity="1"><g transform="translate(753.538886, 373.826318)"><g><path d="M 8.078125 -59.9375 L 8.078125 -69.625 C 8.078125 -70.363281 8.410156 -70.734375 9.078125 -70.734375 L 12.109375 -70.734375 C 12.785156 -70.734375 13.125 -70.363281 13.125 -69.625 L 13.125 -59.9375 C 13.125 -59.132812 12.785156 -58.734375 12.109375 -58.734375 L 9.078125 -58.734375 C 8.410156 -58.734375 8.078125 -59.132812 8.078125 -59.9375 Z M 8.078125 -1.203125 L 8.078125 -50.25 C 8.078125 -51.0625 8.410156 -51.46875 9.078125 -51.46875 L 12.015625 -51.46875 C 12.753906 -51.46875 13.125 -51.0625 13.125 -50.25 L 13.125 -1.203125 C 13.125 -0.398438 12.785156 0 12.109375 0 L 9.078125 0 C 8.410156 0 8.078125 -0.398438 8.078125 -1.203125 Z M 8.078125 -1.203125 "/></g></g></g><g fill="#ffffff" fill-opacity="1"><g transform="translate(774.728421, 373.826318)"><g><path d="M 29.359375 0 L 20.6875 0 C 16.3125 0 12.863281 -1.273438 10.34375 -3.828125 C 7.820312 -6.390625 6.5625 -9.890625 6.5625 -14.328125 L 6.5625 -37.140625 C 6.5625 -41.578125 7.820312 -45.070312 10.34375 -47.625 C 12.863281 -50.1875 16.3125 -51.46875 20.6875 -51.46875 L 29.359375 -51.46875 C 33.734375 -51.46875 37.195312 -50.1875 39.75 -47.625 C 42.3125 -45.070312 43.59375 -41.578125 43.59375 -37.140625 L 43.59375 -14.328125 C 43.59375 -9.890625 42.3125 -6.390625 39.75 -3.828125 C 37.195312 -1.273438 33.734375 0 29.359375 0 Z M 21.09375 -4.546875 L 28.953125 -4.546875 C 32.054688 -4.546875 34.429688 -5.398438 36.078125 -7.109375 C 37.722656 -8.828125 38.546875 -11.265625 38.546875 -14.421875 L 38.546875 -37.03125 C 38.546875 -40.195312 37.722656 -42.632812 36.078125 -44.34375 C 34.429688 -46.0625 32.054688 -46.921875 28.953125 -46.921875 L 21.09375 -46.921875 C 18 -46.921875 15.644531 -46.0625 14.03125 -44.34375 C 12.414062 -42.632812 11.609375 -40.195312 11.609375 -37.03125 L 11.609375 -14.421875 C 11.609375 -11.265625 12.414062 -8.828125 14.03125 -7.109375 C 15.644531 -5.398438 18 -4.546875 21.09375 -4.546875 Z M 21.09375 -4.546875 "/></g></g></g><g fill="#ffffff" fill-opacity="1"><g transform="translate(824.776103, 373.826318)"><g><path d="M 11.5 0 L 8.578125 0 C 7.898438 0 7.5625 -0.398438 7.5625 -1.203125 L 7.5625 -50.25 C 7.5625 -51.0625 7.898438 -51.46875 8.578125 -51.46875 L 11.5 -51.46875 C 12.238281 -51.46875 12.609375 -51.0625 12.609375 -50.25 L 12.609375 -46.21875 L 13.015625 -46.21875 C 14.898438 -49.71875 18.398438 -51.46875 23.515625 -51.46875 L 30.171875 -51.46875 C 34.472656 -51.46875 37.867188 -50.1875 40.359375 -47.625 C 42.847656 -45.070312 44.09375 -41.578125 44.09375 -37.140625 L 44.09375 -1.203125 C 44.09375 -0.398438 43.757812 0 43.09375 0 L 40.15625 0 C 39.414062 0 39.046875 -0.398438 39.046875 -1.203125 L 39.046875 -36.9375 C 39.046875 -40.09375 38.238281 -42.546875 36.625 -44.296875 C 35.007812 -46.046875 32.65625 -46.921875 29.5625 -46.921875 L 23 -46.921875 C 19.769531 -46.921875 17.226562 -46.0625 15.375 -44.34375 C 13.53125 -42.632812 12.609375 -40.195312 12.609375 -37.03125 L 12.609375 -1.203125 C 12.609375 -0.398438 12.238281 0 11.5 0 Z M 11.5 0 "/></g></g></g></svg>